<svg width="341" height="340" viewBox="0 0 341 340" fill="none" xmlns="http://www.w3.org/2000/svg"><path d="M280.942 327.524L94.758 339.102c-23.347 1.457-43.517-15.206-45.063-37.206L34.836 89.873c-1.546-22 16.136-41.007 39.483-42.465L260.503 35.83c23.347-1.457 43.517 15.206 45.063 37.206l14.842 212.023c1.546 22-16.136 41.007-39.466 42.465z" fill="#CFF1DB"/><mask id="a" style="mask-type:alpha" maskUnits="userSpaceOnUse" x="20" y="1" width="302" height="339"><path d="M279.83 326.966L83.716 339.901c-24.591 1.628-45.837-16.987-47.466-41.565L20.6 61.474c-1.63-24.578 16.996-45.812 41.587-47.44L258.301 1.099c24.592-1.628 45.838 16.987 47.467 41.565l15.633 236.862c1.629 24.578-16.997 45.812-41.571 47.44z" fill="#CFF1DB"/></mask><g mask="url(#a)"><path d="M67.182 126.01s-14.913 35.369-3.99 42.786a50.227 50.227 0 0020.506 8.422s34.226-12.41 28.969-24.076c-8.24-18.225-45.485-27.132-45.485-27.132z" fill="#F5C2A2"/><path d="M108.246 65.237l10.745 29.982a.75.75 0 00.414.436l29.669 11.675a2.4 2.4 0 011.628 1.947 2.422 2.422 0 01-1.012 2.332l-25.535 19.142a.721.721 0 00-.213.255.722.722 0 00-.079.322l-.082 32.805a2.414 2.414 0 01-1.339 2.165 2.388 2.388 0 01-2.524-.252l-27.36-20.469a.682.682 0 00-.652-.112l-32.025 10.247a2.391 2.391 0 01-3.151-1.776 2.411 2.411 0 01.11-1.347l10.455-30.952a.71.71 0 00-.084-.63L49.376 94.321a2.417 2.417 0 01-.174-2.537 2.416 2.416 0 012.185-1.29l32.088-1.046a.77.77 0 00.547-.271l19.935-24.701a2.404 2.404 0 014.289.761z" fill="#F26A2B"/><path d="M103.085 338.037s-10.813 90.864-14.13 178.522c-3.319 87.659-5.519 151.055-5.519 151.055l93.207 3.28 3.728-174.162-2.162-158.695h-75.124z" fill="#5FCF86"/><path d="M215.679 338.036s9.544 33.543 14.913 62.129c5.368 28.586 13.831 67.086 13.831 67.086s31.542 90.155-25.464 99.51c-77.92 12.784-81.76-124.705-81.76-124.705l-1.231-60.414-36.126-15.504 5.033-52.178 110.804 24.076z" fill="#5FCF86"/><path d="M273.877 99.657s16.628-25.865 21.102-44.723c4.474-18.859 1.715-26.09-1.006-27.245-2.722-1.155-8.09 10.1-8.09 10.1s3.727-17.814-2.275-19.976c-6.003-2.162-10.924 13.044-10.924 13.044s0-13.23-5.406-11.889c-5.406 1.342-12.191 30.114-12.191 30.114s-1.379-15.206-5.555-14.237c-4.176.97-10.737 21.766-9.321 30.077a81.042 81.042 0 007.046 19.082l26.62 15.653z" fill="#F5C2A2"/><path d="M184.063 153.663s36.872 11.181 37.58 48.45c.709 37.27-68.376 40.997-68.376 40.997s-40.079 3.951-50.965-22.362c-10.887-26.312 24.83-42.301 24.83-42.301s43.584-34.325 56.931-24.784z" fill="#000"/><path d="M162.626 208.971s30.684-39.059 42.577-65.558c11.893-26.499 30.758-70.812 30.758-70.812l60.137 23.032s-15.957 52.961-37.469 94.703c-21.513 41.742-36.053 62.986-36.053 62.986s-.82 89.112-2.05 90.752c-1.231 1.64-34.636 9.094-72.179 7.006-37.544-2.087-45.746-7.453-47.797-8.646-2.05-1.193 15.547-117.996 15.547-117.996a76.597 76.597 0 0146.529-15.467z" fill="#5FCF86"/><path d="M167.062 187.877l-.82 22.362s-4.288 6.298-17.449 6.857c-9.768.448-13.123-1.9-13.123-1.9l1.789-11.181 1.753-11.181 23.861-4.324 3.989-.633z" fill="#F5C2A2"/><path d="M167.062 186.795a7.476 7.476 0 01-.708 2.162c-5.443 10.994-23.264 14.684-28.894 14.907l1.752-11.181 27.85-5.888z" fill="#000"/><path d="M136.118 141.662s-12.825 27.654-8.762 43.456c4.064 15.803 18.418 13.604 27.03 10.771a28.375 28.375 0 0012.676-8.013 12.117 12.117 0 0013.46-4.435c5.48-7.454 2.385-15.914-2.126-17.964a12.6 12.6 0 00-10.029 1.118l4.437-8.013s-16.964-41.63-36.686-16.92z" fill="#F5C2A2"/><path d="M134.775 161.079a.932.932 0 01-.894-.671 2.948 2.948 0 00-1.156-1.453 3.059 3.059 0 00-2.386 0 .935.935 0 01-1.204-.955.884.884 0 01.324-.629.902.902 0 01.32-.168 4.707 4.707 0 013.728 0 4.622 4.622 0 012.051 2.572.92.92 0 01-.091.719.946.946 0 01-.58.436l-.112.149zm16.59 1.79a.932.932 0 01-.708-.335 3.73 3.73 0 00-5.145-.895.93.93 0 01-1.305 0 .886.886 0 01-.208-1.007.872.872 0 01.208-.297 5.376 5.376 0 014.108-1.084 5.373 5.373 0 013.61 2.239.932.932 0 01-.709 1.528l.149-.149zm-19.498-9.839a.932.932 0 110-1.863l5.48-.82a.934.934 0 011.044.783.918.918 0 01-.163.705.915.915 0 01-.272.25.917.917 0 01-.347.125l-5.444.82h-.298zm20.506 2.272H152l-6.338-2.683a.908.908 0 01-.514-.508.89.89 0 01.029-.722.935.935 0 011.194-.485l6.375 2.646a.973.973 0 01.484 1.23.927.927 0 01-.857.522zm-16.107 20.388a.896.896 0 01-.895-.82 19.747 19.747 0 013.207-14.535.93.93 0 011.305 0 .97.97 0 010 1.304 18.29 18.29 0 00-2.796 13.119.865.865 0 01-.466.919.856.856 0 01-.355.087v-.074zm8.725 9.354a6.83 6.83 0 01-4.81-2.646.889.889 0 010-.895.936.936 0 01.634-.596l8.314-2.124a.927.927 0 01.82 0 .997.997 0 01.335.782 5.962 5.962 0 01-3.728 5.106 4.096 4.096 0 01-1.565.373zm-2.237-2.721a3.465 3.465 0 003.019.746 3.21 3.21 0 002.126-2.088l-5.145 1.342zm25.576-4.324a.85.85 0 01-.82-.559.898.898 0 01-.045-.712.882.882 0 01.492-.518l11.185-5.106a.929.929 0 01.706-.028.926.926 0 01.524.476.968.968 0 01-.448 1.267l-11.184 5.106-.41.074z" fill="#000"/><path d="M178.358 180.609a.863.863 0 01-.633-.261l-4.847-4.92a.93.93 0 01.233-1.618.935.935 0 01.772.055.918.918 0 01.299.259l4.959 4.882a.895.895 0 010 1.304.941.941 0 01-.783.299zm-25.985-37.307a21.41 21.41 0 00-13.087 3.056 18.158 18.158 0 00-8.09 8.013 19.042 19.042 0 014.959-19.678c9.059-9.206 26.47-11.74 36.499-.857 10.029 10.882 9.395 20.535 9.395 20.535l-13.682 12.225s-21.102-4.063-15.994-23.294zm109.424-64.774a.94.94 0 01-.702-.312.94.94 0 01-.23-.732c2.423-19.641-6.301-27.542-6.375-27.617a.923.923 0 01-.407-.644.927.927 0 01.517-.971.933.933 0 011.083.199c.41.335 9.581 8.535 7.009 29.256a.895.895 0 01-.895.82zm22.929-18.935a.746.746 0 01-.41 0l-26.098-13.566a.904.904 0 01-.447-.536.904.904 0 01.075-.694.882.882 0 01.527-.469.893.893 0 01.703.059l26.098 13.566a.899.899 0 01.466.552.896.896 0 01-.094.715.927.927 0 01-.82.373z" fill="#000"/><path d="M131.867 214.038s-23.6 10.957-31.765-3.093c-8.165-14.051 0-33.99 0-33.99l-48.99-18.039s-39.332 87.025-2.46 109.536c46.007 28.027 96.152 10.883 96.152 10.883l-12.937-65.297z" fill="#5FCF86"/><path d="M166.577 203.195s-11.446 19.716-31.877 10.92c-20.431-8.795 57.826 118.928 57.826 118.928l-10.477-111.809-15.472-18.039z" fill="#5FCF86"/><path d="M78.016 156.522a.785.785 0 01-.484 0 .81.81 0 01-.332-.518.79.79 0 01.139-.598c6.452-8.955 20.68-4.78 21.292-4.589a.813.813 0 01.481.382.784.784 0 01.068.606.835.835 0 01-.406.478.849.849 0 01-.627.064s-13.646-4.048-19.357 3.983a.813.813 0 01-.774.192zm6.987 74.064a5.618 5.618 0 01-1.864-.335 3.055 3.055 0 01-2.349-2.46c-.596-5.292 15.659-15.69 18.94-17.703a.934.934 0 011.342 1.118c-.336.932-7.606 19.38-16.069 19.38zm13.16-17.33c-7.456 4.845-15.844 11.591-15.509 14.311 0 0 0 .597 1.081.932 5.406 2.087 11.483-8.572 14.578-15.169l-.15-.074zm-1.453-19.937h-.336l-51.3-18.635a.932.932 0 11.633-1.752l51.338 18.635a.928.928 0 01.671 1.067.932.932 0 01-1.006.759v-.074zm194.316-81.063h-.298L229.026 91.46a.934.934 0 01-.597-1.156.97.97 0 011.193-.596l61.703 20.759a.972.972 0 01.597 1.193.933.933 0 01-.896.596zM107.671 287.348a.891.891 0 01-.895-.745 82.386 82.386 0 016.263-50.016.93.93 0 011.231-.41.885.885 0 01.488.542.891.891 0 01-.078.725 80.663 80.663 0 00-6.114 48.786.9.9 0 01-.376.946.9.9 0 01-.332.135l-.187.037zm37.543-70.065a28.309 28.309 0 01-10.849-2.31.936.936 0 01-.595-.868.94.94 0 01.073-.362.939.939 0 011.23-.485c20.17 8.349 30.274-9.727 30.684-10.472a.97.97 0 011.268-.41.918.918 0 01.449.556.927.927 0 01-.077.711c-.074.186-7.568 13.64-22.183 13.64z" fill="#000"/><path d="M98.798 148.855s7.456-31.829 13.981-27.58c6.524 4.249 2.199 35.406-1.007 38.686a44.211 44.211 0 01-11.557 6.634l-1.417-17.74z" fill="#F5C2A2"/><path d="M170.082 146.657s7.084-28.996 26.098-20.647c19.014 8.348.298 35.816-11.185 35.928-11.483.112-14.913-15.281-14.913-15.281z" fill="#000"/></g><path d="M234.564 51.568c7.852-12.142 4.374-28.35-7.768-36.202-12.141-7.852-28.349-4.374-36.201 7.768-7.852 12.141-4.374 28.35 7.767 36.201 12.142 7.852 28.35 4.374 36.202-7.767z" fill="#5CB3FF"/><path d="M205.558 24.02c3.247-.601 6.786 3.436 8.504 9.363 5.154-3.436 10.308-4.398 12.506-1.873 2.44 2.87 0 9.174-5.789 13.864a28.222 28.222 0 01-10.411 4.982c-2.594.618-3.178 0-4.208-1.512a25.51 25.51 0 01-4.896-10.445c-1.426-7.284.67-13.743 4.294-14.379z" fill="#fff"/></svg>